<svg id="visual" viewBox="0 0 1280 100" xmlns="http://www.w3.org/2000/svg" xmlns:xlink="http://www.w3.org/1999/xlink" version="1.1" preserveAspectRatio="none"><path d="M0 25L80 33L160 39L240 28L320 46L400 35L480 24L560 46L640 42L720 37L800 51L880 39L960 38L1040 30L1120 45L1200 37L1280 45L1280 101L1200 101L1120 101L1040 101L960 101L880 101L800 101L720 101L640 101L560 101L480 101L400 101L320 101L240 101L160 101L80 101L0 101Z" fill="#34d399"></path><path d="M0 43L80 53L160 37L240 47L320 35L400 44L480 36L560 33L640 40L720 50L800 38L880 57L960 38L1040 43L1120 56L1200 43L1280 55L1280 101L1200 101L1120 101L1040 101L960 101L880 101L800 101L720 101L640 101L560 101L480 101L400 101L320 101L240 101L160 101L80 101L0 101Z" fill="#00bea7"></path><path d="M0 49L80 45L160 46L240 63L320 45L400 49L480 51L560 61L640 44L720 64L800 62L880 59L960 51L1040 57L1120 51L1200 58L1280 49L1280 101L1200 101L1120 101L1040 101L960 101L880 101L800 101L720 101L640 101L560 101L480 101L400 101L320 101L240 101L160 101L80 101L0 101Z" fill="#00a7aa"></path><path d="M0 58L80 67L160 53L240 71L320 60L400 61L480 55L560 54L640 66L720 68L800 63L880 58L960 53L1040 58L1120 72L1200 67L1280 57L1280 101L1200 101L1120 101L1040 101L960 101L880 101L800 101L720 101L640 101L560 101L480 101L400 101L320 101L240 101L160 101L80 101L0 101Z" fill="#008fa2"></path><path d="M0 65L80 67L160 71L240 67L320 75L400 70L480 69L560 68L640 79L720 68L800 63L880 67L960 76L1040 71L1120 75L1200 68L1280 65L1280 101L1200 101L1120 101L1040 101L960 101L880 101L800 101L720 101L640 101L560 101L480 101L400 101L320 101L240 101L160 101L80 101L0 101Z" fill="#007794"></path><path d="M0 81L80 73L160 74L240 84L320 76L400 84L480 81L560 78L640 84L720 84L800 73L880 81L960 84L1040 74L1120 86L1200 75L1280 77L1280 101L1200 101L1120 101L1040 101L960 101L880 101L800 101L720 101L640 101L560 101L480 101L400 101L320 101L240 101L160 101L80 101L0 101Z" fill="#006082"></path><path d="M0 84L80 90L160 89L240 89L320 83L400 88L480 83L560 89L640 85L720 88L800 90L880 92L960 88L1040 88L1120 83L1200 83L1280 84L1280 101L1200 101L1120 101L1040 101L960 101L880 101L800 101L720 101L640 101L560 101L480 101L400 101L320 101L240 101L160 101L80 101L0 101Z" fill="#0c4a6e"></path></svg>