<svg id="visual" viewBox="0 0 1200 630" width="1200" height="630" xmlns="http://www.w3.org/2000/svg" xmlns:xlink="http://www.w3.org/1999/xlink" version="1.1"><path d="M0 39L75 39L150 33L225 33L300 51L375 64L450 39L525 33L600 39L675 39L750 39L825 83L900 70L975 77L1050 77L1125 39L1200 83L1200 0L1125 0L1050 0L975 0L900 0L825 0L750 0L675 0L600 0L525 0L450 0L375 0L300 0L225 0L150 0L75 0L0 0Z" fill="#34d399"></path><path d="M0 171L75 146L150 127L225 140L300 159L375 165L450 83L525 171L600 171L675 127L750 165L825 203L900 152L975 127L1050 133L1125 190L1200 184L1200 81L1125 37L1050 75L975 75L900 68L825 81L750 37L675 37L600 37L525 31L450 37L375 62L300 49L225 31L150 31L75 37L0 37Z" fill="#00bea7"></path><path d="M0 303L75 354L150 322L225 373L300 272L375 297L450 291L525 335L600 366L675 240L750 291L825 379L900 316L975 316L1050 322L1125 272L1200 335L1200 182L1125 188L1050 131L975 125L900 150L825 201L750 163L675 125L600 169L525 169L450 81L375 163L300 157L225 138L150 125L75 144L0 169Z" fill="#00a7aa"></path><path d="M0 411L75 392L150 360L225 411L300 335L375 366L450 379L525 404L600 417L675 303L750 329L825 448L900 404L975 392L1050 392L1125 341L1200 442L1200 333L1125 270L1050 320L975 314L900 314L825 377L750 289L675 238L600 364L525 333L450 289L375 295L300 270L225 371L150 320L75 352L0 301Z" fill="#008fa2"></path><path d="M0 455L75 429L150 398L225 461L300 366L375 436L450 429L525 461L600 480L675 329L750 360L825 480L900 461L975 417L1050 423L1125 379L1200 480L1200 440L1125 339L1050 390L975 390L900 402L825 446L750 327L675 301L600 415L525 402L450 377L375 364L300 333L225 409L150 358L75 390L0 409Z" fill="#007794"></path><path d="M0 587L75 600L150 568L225 600L300 568L375 555L450 537L525 562L600 568L675 549L750 574L825 593L900 562L975 587L1050 549L1125 581L1200 587L1200 478L1125 377L1050 421L975 415L900 459L825 478L750 358L675 327L600 478L525 459L450 427L375 434L300 364L225 459L150 396L75 427L0 453Z" fill="#006082"></path><path d="M0 631L75 631L150 631L225 631L300 631L375 631L450 631L525 631L600 631L675 631L750 631L825 631L900 631L975 631L1050 631L1125 631L1200 631L1200 585L1125 579L1050 547L975 585L900 560L825 591L750 572L675 547L600 566L525 560L450 535L375 553L300 566L225 598L150 566L75 598L0 585Z" fill="#0c4a6e"></path></svg>